<?xml version="1.0" encoding="UTF-8"?>
<svg id="Icon_Logo" data-name="Icon Logo" xmlns="http://www.w3.org/2000/svg" viewBox="0 0 425.66 424.15">
  <defs>
    <style>
      .cls-1 {
        fill: #4f39f6;
      }

      .cls-2 {
        fill: #3b20d3;
      }

      .cls-3 {
        fill: #3a9e58;
      }
    </style>
  </defs>
  <g id="Tick">
    <polygon class="cls-3" points="425.66 124.57 190.22 360.01 72.49 242.29 120.05 194.73 191.27 265.94 378.1 79.11 425.66 124.57"/>
  </g>
  <g id="Doc">
    <path class="cls-1" d="M0,15.07v394.08c0,8.28,6.72,15,15,15h290.32c8.28,0,15-6.72,15-15v-151.78l-130.02,130.02L45.58,242.66l74.41-74.41,71.18,71.18,124.81-124.81c5.86-5.86,5.86-15.36,0-21.22L223.11.58,15.04.07C6.74.04,0,6.77,0,15.07Z"/>
    <polyline class="cls-2" points="221.17 0 221.17 96.63 318.45 96.63"/>
  </g>
</svg>