<?xml version="1.0" encoding="UTF-8"?>
<svg id="Full_Logo_Black" data-name="Full Logo Black" xmlns="http://www.w3.org/2000/svg" viewBox="0 0 1872 432">
  <defs>
    <style>
      .cls-1 {
        fill: #4f39f6;
      }

      .cls-2 {
        fill: #3b20d3;
      }

      .cls-3 {
        fill: #3a9e58;
      }
    </style>
  </defs>
  <g id="Icon_Logo-2" data-name="Icon Logo">
    <g id="Tick">
      <polygon class="cls-3" points="436.19 127.83 200.75 363.27 83.02 245.55 130.58 197.99 201.8 269.2 388.63 82.37 436.19 127.83"/>
    </g>
    <g id="Doc">
      <path class="cls-1" d="M10.53,18.33v394.08c0,8.28,6.72,15,15,15h290.32c8.28,0,15-6.72,15-15v-151.78l-130.02,130.02L56.11,245.92l74.41-74.41,71.18,71.18,124.81-124.81c5.86-5.86,5.86-15.36,0-21.22L233.64,3.84,25.57,3.33c-8.3-.03-15.04,6.7-15.04,15Z"/>
      <polyline class="cls-2" points="231.7 3.26 231.7 99.89 328.98 99.89"/>
    </g>
  </g>
  <g id="DocApproval">
    <path d="M498.64,107.27v173.15h-22.08V107.27h22.08ZM530.6,280.43h-41.84v-19.52h40.44c14.1,0,25.78-2.69,35.04-8.08,9.26-5.38,16.17-13.11,20.74-23.18,4.57-10.07,6.86-22.12,6.86-36.14s-2.27-25.78-6.8-35.73c-4.53-9.95-11.27-17.61-20.22-22.95-8.95-5.35-20.12-8.02-33.53-8.02h-43.46v-19.52h44.97c16.89,0,31.32,3.45,43.29,10.34,11.97,6.9,21.15,16.79,27.54,29.69,6.39,12.9,9.59,28.3,9.59,46.19s-3.22,33.57-9.65,46.54c-6.43,12.98-15.8,22.95-28.12,29.92s-27.27,10.46-44.86,10.46Z"/>
    <path d="M687.46,283.22c-11.78,0-22.1-2.79-30.97-8.37-8.87-5.58-15.79-13.4-20.74-23.47-4.96-10.07-7.44-21.77-7.44-35.1s2.48-25.39,7.44-35.5c4.96-10.11,11.87-17.95,20.74-23.53,8.87-5.58,19.19-8.37,30.97-8.37s22.23,2.79,31.14,8.37c8.91,5.58,15.84,13.42,20.8,23.53,4.96,10.11,7.44,21.95,7.44,35.5s-2.48,25.03-7.44,35.1c-4.96,10.07-11.89,17.9-20.8,23.47-8.91,5.58-19.29,8.37-31.14,8.37ZM687.46,264.51c8.75,0,15.96-2.25,21.62-6.74,5.65-4.49,9.84-10.4,12.55-17.72,2.71-7.32,4.07-15.24,4.07-23.76s-1.36-16.6-4.07-24c-2.71-7.4-6.9-13.36-12.55-17.9-5.66-4.53-12.86-6.8-21.62-6.8s-15.8,2.27-21.38,6.8-9.72,10.48-12.43,17.84c-2.71,7.36-4.07,15.38-4.07,24.06s1.35,16.44,4.07,23.76c2.71,7.32,6.86,13.23,12.43,17.72,5.58,4.49,12.71,6.74,21.38,6.74Z"/>
    <path d="M818.98,283.22c-11.78,0-22.1-2.79-30.97-8.37-8.87-5.58-15.79-13.4-20.74-23.47-4.96-10.07-7.44-21.77-7.44-35.1s2.48-25.39,7.44-35.5c4.96-10.11,11.87-17.95,20.74-23.53,8.87-5.58,19.19-8.37,30.97-8.37,6.28,0,12.2.81,17.78,2.44s10.67,3.97,15.28,7.03c4.61,3.06,8.58,6.82,11.91,11.27,3.33,4.46,5.89,9.51,7.67,15.17l-20.1,5.69c-.93-3.33-2.36-6.39-4.3-9.18-1.94-2.79-4.28-5.21-7.03-7.26-2.75-2.05-5.91-3.64-9.47-4.76-3.56-1.12-7.48-1.69-11.74-1.69-8.68,0-15.8,2.27-21.38,6.8s-9.72,10.48-12.43,17.84c-2.71,7.36-4.07,15.38-4.07,24.06s1.35,16.44,4.07,23.76c2.71,7.32,6.86,13.23,12.43,17.72,5.58,4.49,12.71,6.74,21.38,6.74,4.34,0,8.33-.58,11.97-1.74,3.64-1.16,6.88-2.81,9.7-4.94,2.83-2.13,5.21-4.67,7.15-7.61,1.94-2.94,3.37-6.16,4.3-9.65l19.99,5.69c-1.71,5.81-4.24,10.98-7.61,15.51-3.37,4.53-7.38,8.41-12.03,11.62-4.65,3.22-9.8,5.66-15.46,7.32-5.66,1.67-11.66,2.5-18.01,2.5Z"/>
    <path d="M878.45,280.43l61.59-173.15h32.54l62.75,173.15h-28.7l-33.7-96.34c-2.63-7.82-5.52-17.04-8.66-27.66-3.14-10.61-6.76-23.36-10.87-38.23h5.35c-3.95,15.03-7.5,27.91-10.63,38.64-3.14,10.73-5.91,19.81-8.31,27.25l-32.66,96.34h-28.7ZM911.8,234.76v-22.08h90.06v22.08h-90.06Z"/>
    <path d="M1051.32,329v-178.5h24.87v21.15h2.09c1.55-2.71,3.7-5.85,6.45-9.41,2.75-3.56,6.58-6.68,11.51-9.35,4.92-2.67,11.45-4.01,19.58-4.01,10.38,0,19.66,2.63,27.83,7.9,8.17,5.27,14.62,12.9,19.35,22.89,4.72,9.99,7.09,22.04,7.09,36.14s-2.32,25.93-6.97,35.97c-4.65,10.03-11.06,17.74-19.23,23.13-8.17,5.39-17.53,8.08-28.07,8.08-7.83,0-14.24-1.34-19.23-4.01-5-2.67-8.91-5.79-11.74-9.35-2.83-3.56-5.02-6.74-6.57-9.53h-1.39v68.91h-25.57ZM1110.12,261.25c7.44,0,13.67-2.01,18.71-6.04,5.04-4.03,8.81-9.49,11.33-16.39,2.52-6.89,3.78-14.64,3.78-23.24s-1.26-16.17-3.78-22.95c-2.52-6.78-6.28-12.14-11.27-16.1-5-3.95-11.25-5.93-18.77-5.93s-13.44,1.88-18.48,5.64c-5.04,3.76-8.83,8.99-11.39,15.69-2.56,6.7-3.83,14.58-3.83,23.65s1.3,16.91,3.89,23.76,6.41,12.22,11.45,16.1c5.04,3.88,11.16,5.81,18.36,5.81Z"/>
    <path d="M1191.3,329v-178.5h24.87v21.15h2.09c1.55-2.71,3.7-5.85,6.45-9.41,2.75-3.56,6.58-6.68,11.51-9.35,4.92-2.67,11.45-4.01,19.58-4.01,10.38,0,19.66,2.63,27.83,7.9,8.17,5.27,14.62,12.9,19.35,22.89,4.72,9.99,7.09,22.04,7.09,36.14s-2.32,25.93-6.97,35.97c-4.65,10.03-11.06,17.74-19.23,23.13-8.17,5.39-17.53,8.08-28.07,8.08-7.83,0-14.24-1.34-19.23-4.01-5-2.67-8.91-5.79-11.74-9.35-2.83-3.56-5.02-6.74-6.57-9.53h-1.39v68.91h-25.57ZM1250.1,261.25c7.44,0,13.67-2.01,18.71-6.04,5.04-4.03,8.81-9.49,11.33-16.39,2.52-6.89,3.78-14.64,3.78-23.24s-1.26-16.17-3.78-22.95c-2.52-6.78-6.28-12.14-11.27-16.1-5-3.95-11.25-5.93-18.77-5.93s-13.44,1.88-18.48,5.64c-5.04,3.76-8.83,8.99-11.39,15.69-2.56,6.7-3.83,14.58-3.83,23.65s1.3,16.91,3.89,23.76,6.41,12.22,11.45,16.1c5.04,3.88,11.16,5.81,18.36,5.81Z"/>
    <path d="M1331.29,280.43v-129.92h24.75v20.92h1.39c2.4-7.13,6.58-12.71,12.55-16.73,5.96-4.03,12.74-6.04,20.34-6.04,1.63,0,3.49.06,5.58.17s3.83.29,5.23.52v24.4c-.93-.31-2.71-.62-5.35-.93-2.63-.31-5.31-.46-8.02-.46-5.89,0-11.2,1.24-15.92,3.72-4.73,2.48-8.41,5.91-11.04,10.28-2.63,4.38-3.95,9.43-3.95,15.17v78.91h-25.57Z"/>
    <path d="M1466.27,283.1c-12.16,0-22.8-2.79-31.9-8.37s-16.17-13.4-21.21-23.47c-5.04-10.07-7.55-21.77-7.55-35.1s2.52-25.28,7.55-35.39c5.04-10.11,12.1-17.95,21.21-23.53s19.74-8.37,31.9-8.37,22.91,2.79,32.02,8.37,16.17,13.42,21.21,23.53c5.04,10.11,7.55,21.91,7.55,35.39s-2.52,25.03-7.55,35.1c-5.04,10.07-12.11,17.9-21.21,23.47s-19.78,8.37-32.02,8.37ZM1466.27,261.48c7.9,0,14.43-2.07,19.58-6.22,5.15-4.14,8.99-9.65,11.5-16.5s3.78-14.39,3.78-22.6-1.26-15.9-3.78-22.84c-2.52-6.93-6.35-12.47-11.5-16.62-5.15-4.14-11.68-6.22-19.58-6.22s-14.29,2.07-19.41,6.22c-5.11,4.15-8.93,9.67-11.45,16.56-2.52,6.9-3.78,14.53-3.78,22.89s1.26,15.75,3.78,22.6c2.52,6.86,6.33,12.36,11.45,16.5,5.11,4.15,11.58,6.22,19.41,6.22Z"/>
    <path d="M1580.92,280.43l-49.04-129.92h27.66l25.68,73.79c2.87,8.13,5.31,16.29,7.32,24.46,2.01,8.17,4.14,16.29,6.39,24.35h-7.67c2.17-8.06,4.26-16.17,6.28-24.35,2.01-8.17,4.42-16.33,7.21-24.46l25.68-73.79h27.43l-49.04,129.92h-27.89Z"/>
    <path d="M1708.24,283.33c-8.21,0-15.65-1.53-22.31-4.59-6.66-3.06-11.93-7.53-15.8-13.42-3.88-5.89-5.81-13.09-5.81-21.62,0-7.36,1.41-13.4,4.24-18.13,2.83-4.72,6.66-8.48,11.51-11.27,4.84-2.79,10.23-4.88,16.15-6.28,5.93-1.39,11.95-2.44,18.07-3.14,7.67-.93,13.91-1.69,18.71-2.27,4.8-.58,8.35-1.55,10.63-2.91,2.29-1.35,3.43-3.54,3.43-6.57v-.7c0-4.88-.93-8.99-2.79-12.32-1.86-3.33-4.63-5.91-8.31-7.73-3.68-1.82-8.27-2.73-13.77-2.73s-10.52.87-14.58,2.61c-4.07,1.74-7.36,3.97-9.88,6.68-2.52,2.71-4.4,5.54-5.64,8.48l-24.06-6.28c2.94-7.75,7.17-13.98,12.67-18.71,5.5-4.72,11.81-8.17,18.94-10.34,7.13-2.17,14.49-3.25,22.08-3.25,5.27,0,10.85.62,16.73,1.86,5.89,1.24,11.43,3.49,16.62,6.74,5.19,3.25,9.41,7.83,12.67,13.71,3.25,5.89,4.88,13.56,4.88,23.01v86.23h-24.75v-17.78h-1.28c-1.71,3.33-4.22,6.59-7.55,9.76-3.33,3.18-7.54,5.79-12.61,7.84s-11.14,3.08-18.19,3.08ZM1713.93,262.76c6.97,0,12.94-1.35,17.9-4.07,4.96-2.71,8.75-6.31,11.39-10.81,2.63-4.49,3.95-9.26,3.95-14.29v-16.62c-.93.93-2.69,1.76-5.29,2.5-2.6.74-5.56,1.39-8.89,1.98-3.33.58-6.55,1.07-9.65,1.45-3.1.39-5.66.7-7.67.93-4.8.62-9.2,1.67-13.19,3.14-3.99,1.47-7.17,3.56-9.53,6.28-2.36,2.71-3.54,6.32-3.54,10.81,0,4.11,1.06,7.55,3.2,10.34,2.13,2.79,5.01,4.88,8.66,6.28,3.64,1.39,7.86,2.09,12.67,2.09Z"/>
    <path d="M1825.44,107.27v173.15h-25.57V107.27h25.57Z"/>
  </g>
</svg>