<?xml version="1.0" encoding="UTF-8" standalone="no"?><!DOCTYPE svg PUBLIC "-//W3C//DTD SVG 1.1//EN" "http://www.w3.org/Graphics/SVG/1.1/DTD/svg11.dtd"><svg width="100%" height="100%" viewBox="0 0 32500 7500" version="1.1" xmlns="http://www.w3.org/2000/svg" xmlns:xlink="http://www.w3.org/1999/xlink" xml:space="preserve" xmlns:serif="http://www.serif.com/" style="fill-rule:evenodd;clip-rule:evenodd;stroke-linejoin:round;stroke-miterlimit:2;"><g id="Icon_Logo-2"><g id="Tick"><path d="M7572.742,2238.021l-4087.5,4087.5l-2043.925,-2043.75l825.696,-825.696l1236.458,1236.283l3243.575,-3243.575l825.696,789.238Z" style="fill:#3a9e58;fill-rule:nonzero;"/></g><g id="Doc"><path d="M182.812,336.979l0,6841.667c0,143.75 116.667,260.417 260.417,260.417l5040.279,0c143.75,0 260.417,-116.667 260.417,-260.417l0,-2635.071l-2257.292,2257.292l-2512.5,-2512.675l1291.842,-1291.842l1235.763,1235.763l2166.842,-2166.842c101.737,-101.738 101.737,-266.667 0,-368.404l-1612.325,-1611.458l-3612.325,-8.854c-144.096,-0.521 -261.113,116.321 -261.113,260.417l-0.004,0.008Z" style="fill:#4f39f6;fill-rule:nonzero;"/><path d="M4022.571,75.346l0,1677.604l1688.888,0" style="fill:#3b20d3;fill-rule:nonzero;"/></g></g><g id="DocApproval"><path d="M8656.946,3478.3l0,3006.075l-383.333,0l0,-3006.075l383.333,0Zm554.867,3006.25l-726.392,0l0,-338.888l702.083,0c244.792,0 447.571,-46.7 608.333,-140.279c160.763,-93.404 280.729,-227.604 360.071,-402.429c79.342,-174.825 119.096,-384.029 119.096,-627.429c0,-243.404 -39.408,-447.571 -118.054,-620.312c-78.646,-172.742 -195.658,-305.729 -351.042,-398.438c-155.383,-92.883 -349.304,-139.238 -582.117,-139.238l-754.513,0l0,-338.887l780.729,0c293.229,0 543.75,59.896 751.562,179.512c207.812,119.792 367.188,291.492 478.125,515.45c110.938,223.958 166.492,491.321 166.492,801.908c0,310.592 -55.904,582.812 -167.533,807.987c-111.633,225.346 -274.304,398.438 -488.196,519.446c-213.888,121.008 -473.438,181.596 -778.821,181.596l0.175,0Z" style="fill-rule:nonzero;"/><path d="M11935.071,6532.988c-204.512,0 -383.679,-48.438 -537.675,-145.312c-153.992,-96.875 -274.133,-232.638 -360.071,-407.467c-86.112,-174.825 -129.167,-377.95 -129.167,-609.375c0,-231.425 43.054,-440.8 129.167,-616.321c86.112,-175.521 206.075,-311.633 360.071,-408.508c153.992,-96.875 333.158,-145.312 537.675,-145.312c204.513,0 385.938,48.438 540.625,145.312c154.688,96.875 275,232.988 361.113,408.508c86.112,175.521 129.167,381.075 129.167,616.321c0,235.242 -43.054,434.55 -129.167,609.375c-86.113,174.825 -206.425,310.762 -361.113,407.467c-154.688,96.875 -334.896,145.312 -540.625,145.312Zm0,-324.825c151.908,0 277.083,-39.062 375.346,-117.012c98.092,-77.95 170.833,-180.554 217.883,-307.638c47.05,-127.083 70.658,-264.583 70.658,-412.5c0,-147.917 -23.612,-288.196 -70.658,-416.667c-47.05,-128.471 -119.792,-231.946 -217.883,-310.762c-98.263,-78.646 -223.263,-118.054 -375.346,-118.054c-152.083,0 -274.304,39.408 -371.179,118.054c-96.875,78.646 -168.75,181.946 -215.8,309.721c-47.05,127.779 -70.658,267.012 -70.658,417.708c0,150.696 23.438,285.417 70.658,412.5c47.05,127.083 119.096,229.688 215.8,307.638c96.875,77.95 220.658,117.012 371.179,117.012Z" style="fill-rule:nonzero;"/><path d="M14218.404,6532.988c-204.513,0 -383.679,-48.438 -537.675,-145.312c-153.992,-96.875 -274.133,-232.638 -360.071,-407.467c-86.112,-174.825 -129.167,-377.95 -129.167,-609.375c0,-231.425 43.054,-440.8 129.167,-616.321c86.112,-175.521 206.075,-311.633 360.071,-408.508c153.992,-96.875 333.158,-145.312 537.675,-145.312c109.029,0 211.804,14.062 308.679,42.363c96.875,28.3 185.242,68.925 265.279,122.05c80.033,53.125 148.958,118.404 206.771,195.658c57.812,77.429 102.258,165.104 133.158,263.367l-348.958,98.783c-16.146,-57.812 -40.971,-110.938 -74.654,-159.375c-33.679,-48.438 -74.304,-90.45 -122.05,-126.042c-47.742,-35.592 -102.604,-63.196 -164.408,-82.637c-61.804,-19.446 -129.862,-29.342 -203.821,-29.342c-150.696,0 -274.304,39.408 -371.179,118.054c-96.875,78.646 -168.75,181.946 -215.8,309.721c-47.05,127.779 -70.658,267.013 -70.658,417.708c0,150.696 23.438,285.417 70.658,412.5c47.05,127.083 119.096,229.688 215.8,307.638c96.875,77.95 220.658,117.013 371.179,117.013c75.346,0 144.617,-10.071 207.812,-30.208c63.196,-20.137 119.446,-48.783 168.404,-85.762c49.133,-36.979 90.45,-81.075 124.133,-132.117c33.679,-51.042 58.508,-106.946 74.654,-167.533l347.05,98.783c-29.688,100.867 -73.612,190.625 -132.117,269.271c-58.508,78.646 -128.125,146.008 -208.854,201.737c-80.729,55.904 -170.138,98.263 -268.404,127.083c-98.262,28.992 -202.429,43.404 -312.675,43.404l0,0.179Z" style="fill-rule:nonzero;"/><path d="M15250.867,6484.55l1069.271,-3006.075l564.929,0l1089.408,3006.075l-498.263,0l-585.071,-1672.571c-45.658,-135.763 -95.833,-295.833 -150.346,-480.208c-54.512,-184.2 -117.362,-405.554 -188.717,-663.717l92.883,0c-68.575,260.938 -130.208,484.55 -184.55,670.833c-54.513,186.283 -102.604,343.925 -144.271,473.092l-567.012,1672.571l-498.263,0Zm578.992,-792.883l0,-383.333l1563.542,0l0,383.333l-1563.542,0Z" style="fill-rule:nonzero;"/><path d="M18252.083,7327.95l0,-3099.133l431.771,0l0,367.188l36.283,0c26.908,-47.05 64.237,-101.562 111.979,-163.367c47.742,-61.804 114.238,-115.971 199.825,-162.325c85.417,-46.354 198.783,-69.617 339.929,-69.617c180.208,0 341.321,45.658 483.158,137.154c141.842,91.492 253.821,223.958 335.938,397.396c81.946,173.438 123.092,382.637 123.092,627.429c0,244.792 -40.279,450.175 -121.008,624.479c-80.729,174.133 -192.012,307.987 -333.854,401.562c-141.842,93.575 -304.342,140.279 -487.325,140.279c-135.938,0 -247.221,-23.263 -333.854,-69.617c-86.804,-46.354 -154.688,-100.521 -203.821,-162.325c-49.133,-61.804 -87.154,-117.013 -114.062,-165.45l-24.133,0l0,1196.354l-443.925,0l0.008,-0.008Zm1020.833,-1176.388c129.167,0 237.325,-34.896 324.825,-104.862c87.5,-69.967 152.95,-164.758 196.7,-284.55c43.75,-119.617 65.625,-254.167 65.625,-403.471c0,-149.304 -21.875,-280.729 -65.625,-398.438c-43.75,-117.708 -109.029,-210.763 -195.658,-279.513c-86.804,-68.575 -195.312,-102.95 -325.867,-102.95c-130.554,0 -233.333,32.638 -320.833,97.917c-87.5,65.279 -153.3,156.075 -197.742,272.396c-44.446,116.321 -66.492,253.125 -66.492,410.592c0,157.467 22.571,293.575 67.533,412.5c44.967,118.925 111.283,212.154 198.783,279.512c87.5,67.363 193.75,100.867 318.75,100.867Z" style="fill-rule:nonzero;"/><path d="M20682.292,7327.95l0,-3099.133l431.771,0l0,367.188l36.283,0c26.908,-47.05 64.238,-101.562 111.979,-163.367c47.742,-61.804 114.237,-115.971 199.825,-162.325c85.417,-46.354 198.783,-69.617 339.929,-69.617c180.208,0 341.321,45.658 483.158,137.154c141.842,91.492 253.821,223.958 335.938,397.396c81.946,173.438 123.092,382.637 123.092,627.429c0,244.792 -40.279,450.175 -121.008,624.479c-80.729,174.133 -192.012,307.987 -333.854,401.562c-141.842,93.575 -304.342,140.279 -487.325,140.279c-135.938,0 -247.221,-23.263 -333.854,-69.617c-86.804,-46.354 -154.688,-100.521 -203.821,-162.325c-49.133,-61.804 -87.154,-117.013 -114.062,-165.45l-24.133,0l0,1196.354l-443.925,0l0.008,-0.008Zm1020.833,-1176.388c129.167,0 237.325,-34.896 324.825,-104.862c87.5,-69.967 152.95,-164.758 196.7,-284.55c43.75,-119.617 65.625,-254.167 65.625,-403.471c0,-149.304 -21.875,-280.729 -65.625,-398.438c-43.75,-117.708 -109.029,-210.763 -195.658,-279.513c-86.804,-68.575 -195.312,-102.95 -325.867,-102.95c-130.554,0 -233.333,32.638 -320.833,97.917c-87.5,65.279 -153.3,156.075 -197.742,272.396c-44.446,116.321 -66.492,253.125 -66.492,410.592c0,157.467 22.571,293.575 67.533,412.5c44.967,118.925 111.283,212.154 198.783,279.512c87.5,67.363 193.75,100.867 318.75,100.867Z" style="fill-rule:nonzero;"/><path d="M23112.675,6484.55l0,-2255.554l429.688,0l0,363.196l24.133,0c41.667,-123.783 114.238,-220.658 217.883,-290.45c103.471,-69.967 221.179,-104.863 353.125,-104.863c28.3,0 60.592,1.042 96.875,2.95c36.283,1.908 66.492,5.033 90.8,9.029l0,423.613c-16.146,-5.383 -47.05,-10.762 -92.883,-16.146c-45.658,-5.383 -92.188,-7.987 -139.238,-7.987c-102.258,0 -194.446,21.529 -276.387,64.583c-82.117,43.054 -146.008,102.604 -191.667,178.471c-45.658,76.042 -68.575,163.717 -68.575,263.367l0,1369.967l-443.925,0l0.175,-0.175l-0.004,-0Z" style="fill-rule:nonzero;"/><path d="M25456.075,6530.904c-211.113,0 -395.833,-48.438 -553.821,-145.312c-157.988,-96.875 -280.729,-232.638 -368.229,-407.467c-87.5,-174.825 -131.075,-377.95 -131.075,-609.375c0,-231.425 43.75,-438.887 131.075,-614.408c87.5,-175.521 210.071,-311.633 368.229,-408.508c158.158,-96.875 342.708,-145.312 553.821,-145.312c211.113,0 397.742,48.438 555.904,145.312c158.158,96.875 280.729,232.987 368.229,408.508c87.5,175.521 131.075,380.383 131.075,614.408c0,234.029 -43.75,434.55 -131.075,609.375c-87.5,174.825 -210.242,310.763 -368.229,407.467c-157.987,96.7 -343.404,145.312 -555.904,145.312Zm0,-375.346c137.154,0 250.521,-35.938 339.929,-107.988c89.408,-71.875 156.075,-167.533 199.654,-286.458c43.575,-118.925 65.625,-249.825 65.625,-392.363c0,-142.533 -21.875,-276.042 -65.625,-396.529c-43.75,-120.312 -110.242,-216.492 -199.654,-288.542c-89.408,-71.875 -202.779,-107.988 -339.929,-107.988c-137.154,0 -248.092,35.938 -336.979,107.988c-88.717,72.05 -155.033,167.883 -198.783,287.5c-43.75,119.792 -65.625,252.258 -65.625,397.396c0,145.138 21.875,273.438 65.625,392.362c43.75,119.096 109.896,214.583 198.783,286.458c88.717,72.05 201.042,107.987 336.979,107.987l0,0.175Z" style="fill-rule:nonzero;"/><path d="M27446.529,6484.55l-851.388,-2255.554l480.208,0l445.833,1281.075c49.825,141.146 92.188,282.812 127.083,424.654c34.896,141.842 71.875,282.812 110.938,422.742l-133.158,0c37.675,-139.929 73.958,-280.729 109.029,-422.742c34.896,-141.842 76.738,-283.508 125.175,-424.654l445.833,-1281.075l476.217,0l-851.387,2255.554l-484.383,0Z" style="fill-rule:nonzero;"/><path d="M29656.946,6534.896c-142.533,0 -271.7,-26.562 -387.325,-79.688c-115.625,-53.125 -207.117,-130.729 -274.304,-232.988c-67.363,-102.258 -100.867,-227.258 -100.867,-375.346c0,-127.779 24.479,-232.637 73.613,-314.758c49.133,-81.946 115.625,-147.221 199.825,-195.658c84.029,-48.438 177.604,-84.721 280.383,-109.029c102.95,-24.133 207.467,-42.363 313.717,-54.513c133.158,-16.146 241.492,-29.342 324.825,-39.408c83.333,-10.071 144.967,-26.908 184.55,-50.521c39.758,-23.438 59.55,-61.458 59.55,-114.062l0,-12.154c0,-84.721 -16.146,-156.075 -48.438,-213.888c-32.292,-57.812 -80.383,-102.604 -144.271,-134.2c-63.888,-31.596 -143.575,-47.396 -239.062,-47.396c-95.488,0 -182.638,15.104 -253.125,45.312c-70.658,30.208 -127.779,68.925 -171.529,115.971c-43.75,47.05 -76.387,96.179 -97.917,147.221l-417.708,-109.029c51.042,-134.55 124.479,-242.708 219.967,-324.825c95.487,-81.946 205.033,-141.842 328.821,-179.512c123.783,-37.675 251.562,-56.425 383.333,-56.425c91.492,0 188.367,10.762 290.45,32.292c102.258,21.529 198.438,60.592 288.542,117.013c90.104,56.425 163.367,135.938 219.967,238.021c56.425,102.258 84.721,235.417 84.721,399.479l0,1497.05l-429.688,0l0,-308.679l-22.221,0c-29.688,57.812 -73.262,114.408 -131.075,169.446c-57.812,55.208 -130.904,100.521 -218.925,136.112c-88.021,35.592 -193.404,53.471 -315.8,53.471l0,0.696l-0.008,-0.004Zm98.783,-357.117c121.008,0 224.654,-23.438 310.763,-70.658c86.112,-47.05 151.908,-109.55 197.742,-187.675c45.658,-77.95 68.575,-160.762 68.575,-248.092l0,-288.542c-16.146,16.146 -46.7,30.554 -91.842,43.404c-45.138,12.846 -96.529,24.133 -154.342,34.375c-57.812,10.071 -113.717,18.575 -167.533,25.175c-53.821,6.771 -98.263,12.154 -133.158,16.146c-83.333,10.763 -159.721,28.992 -228.992,54.513c-69.271,25.521 -124.479,61.804 -165.45,109.029c-40.971,47.05 -61.458,109.721 -61.458,187.675c0,71.354 18.404,131.075 55.554,179.513c36.979,48.438 86.979,84.721 150.346,109.029c63.196,24.133 136.458,36.283 219.967,36.283l-0.175,-0.175l0.004,0Z" style="fill-rule:nonzero;"/><rect x="31247.742" y="3478.3" width="443.925" height="3006.075"/></g></svg>