<?xml version="1.0" encoding="UTF-8" standalone="no"?><!DOCTYPE svg PUBLIC "-//W3C//DTD SVG 1.1//EN" "http://www.w3.org/Graphics/SVG/1.1/DTD/svg11.dtd"><svg width="100%" height="100%" viewBox="0 0 7800 1800" version="1.1" xmlns="http://www.w3.org/2000/svg" xmlns:xlink="http://www.w3.org/1999/xlink" xml:space="preserve" xmlns:serif="http://www.serif.com/" style="fill-rule:evenodd;clip-rule:evenodd;stroke-linejoin:round;stroke-miterlimit:2;"><g id="Icon_Logo-2"><g id="Tick"><path d="M1817.458,537.125l-981,981l-490.542,-490.5l198.167,-198.167l296.75,296.708l778.458,-778.458l198.167,189.417Z" style="fill:#fff;fill-rule:nonzero;"/></g><g id="Doc"><path d="M43.875,80.875l0,1642c0,34.5 28,62.5 62.5,62.5l1209.667,0c34.5,0 62.5,-28 62.5,-62.5l0,-632.417l-541.75,541.75l-603,-603.042l310.042,-310.042l296.583,296.583l520.042,-520.042c24.417,-24.417 24.417,-64 0,-88.417l-386.958,-386.75l-866.958,-2.125c-34.583,-0.125 -62.667,27.917 -62.667,62.5Z" style="fill:#fff;fill-rule:nonzero;"/><path d="M965.417,18.083l0,402.625l405.333,0" style="fill:#ebebeb;fill-rule:nonzero;"/></g></g><g id="DocApproval"><path d="M2077.667,834.792l0,721.458l-92,0l0,-721.458l92,0Zm133.167,721.5l-174.333,0l0,-81.333l168.5,0c58.75,0 107.417,-11.208 146,-33.667c38.583,-22.417 67.375,-54.625 86.417,-96.583c19.042,-41.958 28.583,-92.167 28.583,-150.583c0,-58.417 -9.458,-107.417 -28.333,-148.875c-18.875,-41.458 -46.958,-73.375 -84.25,-95.625c-37.292,-22.292 -83.833,-33.417 -139.708,-33.417l-181.083,0l0,-81.333l187.375,0c70.375,0 130.5,14.375 180.375,43.083c49.875,28.75 88.125,69.958 114.75,123.708c26.625,53.75 39.958,117.917 39.958,192.458c0,74.542 -13.417,139.875 -40.208,193.917c-26.792,54.083 -65.833,95.625 -117.167,124.667c-51.333,29.042 -113.625,43.583 -186.917,43.583l0.042,0Z" style="fill:#fff;fill-rule:nonzero;"/><path d="M2864.417,1567.917c-49.083,0 -92.083,-11.625 -129.042,-34.875c-36.958,-23.25 -65.792,-55.833 -86.417,-97.792c-20.667,-41.958 -31,-90.708 -31,-146.25c0,-55.542 10.333,-105.792 31,-147.917c20.667,-42.125 49.458,-74.792 86.417,-98.042c36.958,-23.25 79.958,-34.875 129.042,-34.875c49.083,0 92.625,11.625 129.75,34.875c37.125,23.25 66,55.917 86.667,98.042c20.667,42.125 31,91.458 31,147.917c0,56.458 -10.333,104.292 -31,146.25c-20.667,41.958 -49.542,74.583 -86.667,97.792c-37.125,23.25 -80.375,34.875 -129.75,34.875Zm0,-77.958c36.458,0 66.5,-9.375 90.083,-28.083c23.542,-18.708 41,-43.333 52.292,-73.833c11.292,-30.5 16.958,-63.5 16.958,-99c0,-35.5 -5.667,-69.167 -16.958,-100c-11.292,-30.833 -28.75,-55.667 -52.292,-74.583c-23.583,-18.875 -53.583,-28.333 -90.083,-28.333c-36.5,0 -65.833,9.458 -89.083,28.333c-23.25,18.875 -40.5,43.667 -51.792,74.333c-11.292,30.667 -16.958,64.083 -16.958,100.25c0,36.167 5.625,68.5 16.958,99c11.292,30.5 28.583,55.125 51.792,73.833c23.25,18.708 52.958,28.083 89.083,28.083Z" style="fill:#fff;fill-rule:nonzero;"/><path d="M3412.417,1567.917c-49.083,0 -92.083,-11.625 -129.042,-34.875c-36.958,-23.25 -65.792,-55.833 -86.417,-97.792c-20.667,-41.958 -31,-90.708 -31,-146.25c0,-55.542 10.333,-105.792 31,-147.917c20.667,-42.125 49.458,-74.792 86.417,-98.042c36.958,-23.25 79.958,-34.875 129.042,-34.875c26.167,0 50.833,3.375 74.083,10.167c23.25,6.792 44.458,16.542 63.667,29.292c19.208,12.75 35.75,28.417 49.625,46.958c13.875,18.583 24.542,39.625 31.958,63.208l-83.75,23.708c-3.875,-13.875 -9.833,-26.625 -17.917,-38.25c-8.083,-11.625 -17.833,-21.708 -29.292,-30.25c-11.458,-8.542 -24.625,-15.167 -39.458,-19.833c-14.833,-4.667 -31.167,-7.042 -48.917,-7.042c-36.167,0 -65.833,9.458 -89.083,28.333c-23.25,18.875 -40.5,43.667 -51.792,74.333c-11.292,30.667 -16.958,64.083 -16.958,100.25c0,36.167 5.625,68.5 16.958,99c11.292,30.5 28.583,55.125 51.792,73.833c23.25,18.708 52.958,28.083 89.083,28.083c18.083,0 34.708,-2.417 49.875,-7.25c15.167,-4.833 28.667,-11.708 40.417,-20.583c11.792,-8.875 21.708,-19.458 29.792,-31.708c8.083,-12.25 14.042,-25.667 17.917,-40.208l83.292,23.708c-7.125,24.208 -17.667,45.75 -31.708,64.625c-14.042,18.875 -30.75,35.042 -50.125,48.417c-19.375,13.417 -40.833,23.583 -64.417,30.5c-23.583,6.958 -48.583,10.417 -75.042,10.417l0,0.042Z" style="fill:#fff;fill-rule:nonzero;"/><path d="M3660.208,1556.292l256.625,-721.458l135.583,0l261.458,721.458l-119.583,0l-140.417,-401.417c-10.958,-32.583 -23,-71 -36.083,-115.25c-13.083,-44.208 -28.167,-97.333 -45.292,-159.292l22.292,0c-16.458,62.625 -31.25,116.292 -44.292,161c-13.083,44.708 -24.625,82.542 -34.625,113.542l-136.083,401.417l-119.583,0Zm138.958,-190.292l0,-92l375.25,0l0,92l-375.25,0Z" style="fill:#fff;fill-rule:nonzero;"/><path d="M4380.5,1758.708l0,-743.792l103.625,0l0,88.125l8.708,0c6.458,-11.292 15.417,-24.375 26.875,-39.208c11.458,-14.833 27.417,-27.833 47.958,-38.958c20.5,-11.125 47.708,-16.708 81.583,-16.708c43.25,0 81.917,10.958 115.958,32.917c34.042,21.958 60.917,53.75 80.625,95.375c19.667,41.625 29.542,91.833 29.542,150.583c0,58.75 -9.667,108.042 -29.042,149.875c-19.375,41.792 -46.083,73.917 -80.125,96.375c-34.042,22.458 -73.042,33.667 -116.958,33.667c-32.625,0 -59.333,-5.583 -80.125,-16.708c-20.833,-11.125 -37.125,-24.125 -48.917,-38.958c-11.792,-14.833 -20.917,-28.083 -27.375,-39.708l-5.792,0l0,287.125l-106.542,0Zm245,-282.333c31,0 56.958,-8.375 77.958,-25.167c21,-16.792 36.708,-39.542 47.208,-68.292c10.5,-28.708 15.75,-61 15.75,-96.833c0,-35.833 -5.25,-67.375 -15.75,-95.625c-10.5,-28.25 -26.167,-50.583 -46.958,-67.083c-20.833,-16.458 -46.875,-24.708 -78.208,-24.708c-31.333,0 -56,7.833 -77,23.5c-21,15.667 -36.792,37.458 -47.458,65.375c-10.667,27.917 -15.958,60.75 -15.958,98.542c0,37.792 5.417,70.458 16.208,99c10.792,28.542 26.708,50.917 47.708,67.083c21,16.167 46.5,24.208 76.5,24.208Z" style="fill:#fff;fill-rule:nonzero;"/><path d="M4963.75,1758.708l0,-743.792l103.625,0l0,88.125l8.708,0c6.458,-11.292 15.417,-24.375 26.875,-39.208c11.458,-14.833 27.417,-27.833 47.958,-38.958c20.5,-11.125 47.708,-16.708 81.583,-16.708c43.25,0 81.917,10.958 115.958,32.917c34.042,21.958 60.917,53.75 80.625,95.375c19.667,41.625 29.542,91.833 29.542,150.583c0,58.75 -9.667,108.042 -29.042,149.875c-19.375,41.792 -46.083,73.917 -80.125,96.375c-34.042,22.458 -73.042,33.667 -116.958,33.667c-32.625,0 -59.333,-5.583 -80.125,-16.708c-20.833,-11.125 -37.125,-24.125 -48.917,-38.958c-11.792,-14.833 -20.917,-28.083 -27.375,-39.708l-5.792,0l0,287.125l-106.542,0Zm245,-282.333c31,0 56.958,-8.375 77.958,-25.167c21,-16.792 36.708,-39.542 47.208,-68.292c10.5,-28.708 15.75,-61 15.75,-96.833c0,-35.833 -5.25,-67.375 -15.75,-95.625c-10.5,-28.25 -26.167,-50.583 -46.958,-67.083c-20.833,-16.458 -46.875,-24.708 -78.208,-24.708c-31.333,0 -56,7.833 -77,23.5c-21,15.667 -36.792,37.458 -47.458,65.375c-10.667,27.917 -15.958,60.75 -15.958,98.542c0,37.792 5.417,70.458 16.208,99c10.792,28.542 26.708,50.917 47.708,67.083c21,16.167 46.5,24.208 76.5,24.208Z" style="fill:#fff;fill-rule:nonzero;"/><path d="M5547.042,1556.292l0,-541.333l103.125,0l0,87.167l5.792,0c10,-29.708 27.417,-52.958 52.292,-69.708c24.833,-16.792 53.083,-25.167 84.75,-25.167c6.792,0 14.542,0.25 23.25,0.708c8.708,0.458 15.958,1.208 21.792,2.167l0,101.667c-3.875,-1.292 -11.292,-2.583 -22.292,-3.875c-10.958,-1.292 -22.125,-1.917 -33.417,-1.917c-24.542,0 -46.667,5.167 -66.333,15.5c-19.708,10.333 -35.042,24.625 -46,42.833c-10.958,18.25 -16.458,39.292 -16.458,63.208l0,328.792l-106.542,0l0.042,-0.042Z" style="fill:#fff;fill-rule:nonzero;"/><path d="M6109.458,1567.417c-50.667,0 -95,-11.625 -132.917,-34.875c-37.917,-23.25 -67.375,-55.833 -88.375,-97.792c-21,-41.958 -31.458,-90.708 -31.458,-146.25c0,-55.542 10.5,-105.333 31.458,-147.458c21,-42.125 50.417,-74.792 88.375,-98.042c37.958,-23.25 82.25,-34.875 132.917,-34.875c50.667,0 95.458,11.625 133.417,34.875c37.958,23.25 67.375,55.917 88.375,98.042c21,42.125 31.458,91.292 31.458,147.458c0,56.167 -10.5,104.292 -31.458,146.25c-21,41.958 -50.458,74.583 -88.375,97.792c-37.917,23.208 -82.417,34.875 -133.417,34.875Zm0,-90.083c32.917,0 60.125,-8.625 81.583,-25.917c21.458,-17.25 37.458,-40.208 47.917,-68.75c10.458,-28.542 15.75,-59.958 15.75,-94.167c0,-34.208 -5.25,-66.25 -15.75,-95.167c-10.5,-28.875 -26.458,-51.958 -47.917,-69.25c-21.458,-17.25 -48.667,-25.917 -81.583,-25.917c-32.917,0 -59.542,8.625 -80.875,25.917c-21.292,17.292 -37.208,40.292 -47.708,69c-10.5,28.75 -15.75,60.542 -15.75,95.375c0,34.833 5.25,65.625 15.75,94.167c10.5,28.583 26.375,51.5 47.708,68.75c21.292,17.292 48.25,25.917 80.875,25.917l0,0.042Z" style="fill:#fff;fill-rule:nonzero;"/><path d="M6587.167,1556.292l-204.333,-541.333l115.25,0l107,307.458c11.958,33.875 22.125,67.875 30.5,101.917c8.375,34.042 17.25,67.875 26.625,101.458l-31.958,0c9.042,-33.583 17.75,-67.375 26.167,-101.458c8.375,-34.042 18.417,-68.042 30.042,-101.917l107,-307.458l114.292,0l-204.333,541.333l-116.25,0Z" style="fill:#fff;fill-rule:nonzero;"/><path d="M7117.667,1568.375c-34.208,0 -65.208,-6.375 -92.958,-19.125c-27.75,-12.75 -49.708,-31.375 -65.833,-55.917c-16.167,-24.542 -24.208,-54.542 -24.208,-90.083c0,-30.667 5.875,-55.833 17.667,-75.542c11.792,-19.667 27.75,-35.333 47.958,-46.958c20.167,-11.625 42.625,-20.333 67.292,-26.167c24.708,-5.792 49.792,-10.167 75.292,-13.083c31.958,-3.875 57.958,-7.042 77.958,-9.458c20,-2.417 34.792,-6.458 44.292,-12.125c9.542,-5.625 14.292,-14.75 14.292,-27.375l0,-2.917c0,-20.333 -3.875,-37.458 -11.625,-51.333c-7.75,-13.875 -19.292,-24.625 -34.625,-32.208c-15.333,-7.583 -34.458,-11.375 -57.375,-11.375c-22.917,0 -43.833,3.625 -60.75,10.875c-16.958,7.25 -30.667,16.542 -41.167,27.833c-10.5,11.292 -18.333,23.083 -23.5,35.333l-100.25,-26.167c12.25,-32.292 29.875,-58.25 52.792,-77.958c22.917,-19.667 49.208,-34.042 78.917,-43.083c29.708,-9.042 60.375,-13.542 92,-13.542c21.958,0 45.208,2.583 69.708,7.75c24.542,5.167 47.625,14.542 69.25,28.083c21.625,13.542 39.208,32.625 52.792,57.125c13.542,24.542 20.333,56.5 20.333,95.875l0,359.292l-103.125,0l0,-74.083l-5.333,0c-7.125,13.875 -17.583,27.458 -31.458,40.667c-13.875,13.25 -31.417,24.125 -52.542,32.667c-21.125,8.542 -46.417,12.833 -75.792,12.833l-0,0.167Zm23.708,-85.708c29.042,0 53.917,-5.625 74.583,-16.958c20.667,-11.292 36.458,-26.292 47.458,-45.042c10.958,-18.708 16.458,-38.583 16.458,-59.542l0,-69.25c-3.875,3.875 -11.208,7.333 -22.042,10.417c-10.833,3.083 -23.167,5.792 -37.042,8.25c-13.875,2.417 -27.292,4.458 -40.208,6.042c-12.917,1.625 -23.583,2.917 -31.958,3.875c-20,2.583 -38.333,6.958 -54.958,13.083c-16.625,6.125 -29.875,14.833 -39.708,26.167c-9.833,11.292 -14.75,26.333 -14.75,45.042c0,17.125 4.417,31.458 13.333,43.083c8.875,11.625 20.875,20.333 36.083,26.167c15.167,5.792 32.75,8.708 52.792,8.708l-0.042,-0.042Z" style="fill:#fff;fill-rule:nonzero;"/><rect x="7499.458" y="834.792" width="106.542" height="721.458" style="fill:#fff;fill-rule:nonzero;"/></g></svg>